<svg width="182" height="128" viewBox="0 0 182 128" fill="none" xmlns="http://www.w3.org/2000/svg">
<path d="M140.808 128H87.3701V101.407C87.3701 101.407 106.188 94.6179 119.443 76.0145C128.367 63.4896 130.013 36.2092 130.013 36.2092H140.808V128Z" fill="#ACE5E5"/>
<path d="M0.5 125.199H181.5" stroke="#0F1144" stroke-width="1.05515" stroke-miterlimit="10"/>
<path d="M73.3475 0H46.1644V28.2797C46.1644 28.2797 48.7352 17.9969 55.7149 10.6507C62.5223 3.48669 73.3475 0 73.3475 0Z" fill="#ACE5E5"/>
<path d="M100.348 125.034H48.7335V2.0715H100.348V36.2092" stroke="#0F1144" stroke-width="1.05515" stroke-miterlimit="10" stroke-linecap="round"/>
<path d="M137.162 36.2092H85.5468V124.868H137.162V36.2092Z" stroke="#0F1144" stroke-width="1.05515" stroke-miterlimit="10" stroke-linecap="round"/>
<path d="M111.387 80.6214H37.6282V124.951H111.387V80.6214Z" fill="white" stroke="#0F1144" stroke-width="1.05515" stroke-miterlimit="10" stroke-linecap="round"/>
<path d="M59.8388 108.13H44.3146V125.105H59.8388V108.13Z" fill="#41BBC7" stroke="#0F1144" stroke-width="1.05515" stroke-miterlimit="10"/>
<path d="M44.0925 106.142C44.0925 101.702 47.691 98.1046 52.1314 98.1046C56.5719 98.1046 60.1703 101.702 60.1703 106.142H44.0925Z" stroke="#0F1144" stroke-width="1.05515" stroke-miterlimit="10"/>
<path d="M13.9696 123.206V124.858" stroke="#0F1144" stroke-width="0.614954" stroke-miterlimit="10"/>
<path d="M10.2614 123.206V124.858" stroke="#0F1144" stroke-width="0.614954" stroke-miterlimit="10"/>
<path d="M8.50162 122.734V124.811" stroke="#0F1144" stroke-width="0.614954" stroke-miterlimit="10"/>
<path d="M18.8814 125V112.35" stroke="#0F1144" stroke-width="0.614954" stroke-miterlimit="10"/>
<path d="M22.3056 104.541C22.7462 103.873 23.0039 103.067 23.0039 102.201C23.0039 99.8811 21.1571 98 18.8794 98C16.6017 98 14.755 99.8811 14.755 102.201C14.755 103.067 15.0126 103.873 15.4532 104.541C13.5342 105.723 12.2521 107.869 12.2521 110.319C12.2521 114.047 15.2185 117.069 18.8782 117.069C22.538 117.069 25.5043 114.047 25.5043 110.319C25.5067 107.869 24.2246 105.724 22.3056 104.541Z" fill="#07C279" fill-opacity="0.5" stroke="#0F1144" stroke-width="0.614954" stroke-miterlimit="10"/>
<path d="M103.763 94.5284H97.0234V111.334H103.763V94.5284Z" fill="#41BBC7" stroke="#0F1144" stroke-width="1.05515" stroke-miterlimit="10"/>
<path d="M89.674 94.5284H82.9345V111.334H89.674V94.5284Z" fill="#41BBC7" stroke="#0F1144" stroke-width="1.05515" stroke-miterlimit="10"/>
<path d="M75.5851 94.5284H68.8457V111.334H75.5851V94.5284Z" fill="#41BBC7" stroke="#0F1144" stroke-width="1.05515" stroke-miterlimit="10"/>
<path d="M30.5009 89.9016H115.863" stroke="#0F1144" stroke-width="1.05515" stroke-miterlimit="10" stroke-linecap="round"/>
<path d="M131.805 86.5193H125.035V93.2872H131.805V86.5193Z" fill="#41BBC7" stroke="#0F1144" stroke-width="1.05515" stroke-miterlimit="10"/>
<path d="M163.423 122.19V124.778" stroke="#0F1144" stroke-width="0.740585" stroke-miterlimit="10"/>
<path d="M160.608 121.746V125" stroke="#0F1144" stroke-width="0.740585" stroke-miterlimit="10"/>
<path d="M166.534 120.119V125" stroke="#0F1144" stroke-width="0.740585" stroke-miterlimit="10"/>
<path d="M141.529 114.276H159.425L153.398 77H147.555L141.529 114.276Z" fill="#07C279" fill-opacity="0.5"/>
<path d="M149.869 124.852V92.3097" stroke="#0F1144" stroke-width="0.740585" stroke-miterlimit="10"/>
<path d="M141.973 112.723H157.622L152.352 77H147.243L141.973 112.723Z" stroke="#0F1144" stroke-width="0.740585" stroke-miterlimit="10"/>
<path d="M114.732 65.8046H107.963V72.5726H114.732V65.8046Z" fill="#41BBC7" stroke="#0F1144" stroke-width="1.05515" stroke-miterlimit="10"/>
<path d="M100.312 65.8046H93.5426V72.5726H100.312V65.8046Z" fill="#41BBC7" stroke="#0F1144" stroke-width="1.05515" stroke-miterlimit="10"/>
<path d="M81.7478 52.713H74.9785V59.4809H81.7478V52.713Z" fill="#41BBC7" stroke="#2D358E" stroke-width="1.05515" stroke-miterlimit="10"/>
<path d="M131.805 50.8901H125.035V57.658H131.805V50.8901Z" fill="#41BBC7" stroke="#0F1144" stroke-width="1.05515" stroke-miterlimit="10"/>
<path d="M85.5302 44.9922H140.891" stroke="#0F1144" stroke-width="1.05515" stroke-miterlimit="10" stroke-linecap="round"/>
<path d="M63.1837 29.844H56.4144V36.6119H63.1837V29.844Z" fill="#41BBC7" stroke="#0F1144" stroke-width="1.05515" stroke-miterlimit="10"/>
<path d="M80.5875 16.5866H73.8182V23.3545H80.5875V16.5866Z" fill="#41BBC7" stroke="#0F1144" stroke-width="1.05515" stroke-miterlimit="10"/>
<path d="M63.2616 16.5866H56.4923V23.3545H63.2616V16.5866Z" fill="#41BBC7" stroke="#0F1144" stroke-width="1.05515" stroke-miterlimit="10"/>
<path d="M100.282 10.0259H44.2582" stroke="#0F1144" stroke-width="1.05515" stroke-miterlimit="10" stroke-linecap="round"/>
</svg>
