<svg width="296" height="128" viewBox="0 0 296 128" fill="none" xmlns="http://www.w3.org/2000/svg">
<path d="M21.4594 123.206V124.858" stroke="#0F1144" stroke-width="0.614954" stroke-miterlimit="10"/>
<path d="M17.7512 123.206V124.858" stroke="#0F1144" stroke-width="0.614954" stroke-miterlimit="10"/>
<path d="M15.9915 122.734V124.811" stroke="#0F1144" stroke-width="0.614954" stroke-miterlimit="10"/>
<path d="M29.7954 104.541C30.2361 103.873 30.4937 103.067 30.4937 102.201C30.4937 99.8811 28.647 98 26.3692 98C24.0915 98 22.2448 99.8811 22.2448 102.201C22.2448 103.067 22.5024 103.873 22.943 104.541C21.0241 105.723 19.742 107.869 19.742 110.319C19.742 114.047 22.7083 117.069 26.3681 117.069C30.0278 117.069 32.9942 114.047 32.9942 110.319C32.9966 107.869 31.7144 105.724 29.7954 104.541Z" fill="#07C279" fill-opacity="0.5" stroke="#0F1144" stroke-width="0.614954" stroke-miterlimit="10"/>
<path d="M26.3713 125V112.35" stroke="#0F1144" stroke-width="0.614954" stroke-miterlimit="10"/>
<g clip-path="url(#clip0)">
<path d="M167.378 114.585H163.672V118.275H167.378V114.585Z" fill="#41BBC7" stroke="#0F1144" stroke-width="0.758275" stroke-miterlimit="10"/>
<path d="M87.9737 127H160.871V64.221H140.41V75.7205C140.41 90.1142 128.688 101.783 114.228 101.783H106.409C96.2262 101.783 87.9723 110 87.9723 120.136V127H87.9737Z" fill="#ACE5E5"/>
<path d="M90.8331 75.0412H72.0635V124.926H90.8331V75.0412Z" stroke="#0F1144" stroke-width="0.758275" stroke-miterlimit="10"/>
<path d="M90.8339 75.0412H71.1875L68.002 71.2908H90.8112" stroke="#0F1144" stroke-width="0.758275" stroke-miterlimit="10"/>
<path d="M158.988 71.2907H181.025L177.841 75.0412H159.033" stroke="#0F1144" stroke-width="0.758275" stroke-miterlimit="10"/>
<path d="M159.033 75.0412H130.233" stroke="#0F1144" stroke-width="0.758275" stroke-miterlimit="10"/>
<path d="M158.988 64.1968H90.8112V124.924H158.988V64.1968Z" stroke="#0F1144" stroke-width="0.758275" stroke-miterlimit="10"/>
<path d="M146.348 116.429H156.333" stroke="#0F1144" stroke-width="0.758275" stroke-miterlimit="10"/>
<path d="M137.858 116.429H142.898" stroke="#0F1144" stroke-width="0.758275" stroke-miterlimit="10"/>
<path d="M132.23 111.64H117.16V124.924H132.23V111.64Z" fill="#41BBC7" stroke="#0F1144" stroke-width="0.758275" stroke-miterlimit="10"/>
<path d="M124.695 111.64V124.924" stroke="#0F1144" stroke-width="0.758275" stroke-miterlimit="10"/>
<path d="M84.5238 110.466H105.948" stroke="#0F1144" stroke-width="0.758275" stroke-miterlimit="10"/>
<path d="M154.759 108.62H151.053V112.31H154.759V108.62Z" fill="#41BBC7" stroke="#0F1144" stroke-width="0.758275" stroke-miterlimit="10"/>
<path d="M79.6825 108.62H75.9764V112.31H79.6825V108.62Z" fill="#41BBC7" stroke="#0F1144" stroke-width="0.758275" stroke-miterlimit="10"/>
<path d="M171.04 107.664H174.716" stroke="#0F1144" stroke-width="0.758275" stroke-miterlimit="10"/>
<path d="M171.04 105.314H174.716" stroke="#0F1144" stroke-width="0.758275" stroke-miterlimit="10"/>
<path d="M110.731 102.838H107.024V106.528H110.731V102.838Z" fill="#41BBC7" stroke="#0F1144" stroke-width="0.758275" stroke-miterlimit="10"/>
<path d="M101.016 102.838H97.3098V106.528H101.016V102.838Z" fill="#41BBC7" stroke="#0F1144" stroke-width="0.758275" stroke-miterlimit="10"/>
<path d="M154.759 99.9449H151.053V103.635H154.759V99.9449Z" fill="#41BBC7" stroke="#0F1144" stroke-width="0.758275" stroke-miterlimit="10"/>
<path d="M136.149 99.9449H132.443V103.635H136.149V99.9449Z" fill="#41BBC7" stroke="#0F1144" stroke-width="0.758275" stroke-miterlimit="10"/>
<path d="M174.731 99.1325H171.025V102.822H174.731V99.1325Z" fill="#41BBC7" stroke="#0F1144" stroke-width="0.758275" stroke-miterlimit="10"/>
<path d="M99.6853 98.1749H105.904" stroke="#0F1144" stroke-width="0.758275" stroke-miterlimit="10"/>
<path d="M86.8544 96.3306H83.1484V100.021H86.8544V96.3306Z" fill="#41BBC7" stroke="#0F1144" stroke-width="0.758275" stroke-miterlimit="10"/>
<path d="M86.8544 88.3774H83.1484V92.0673H86.8544V88.3774Z" fill="#41BBC7" stroke="#0F1144" stroke-width="0.758275" stroke-miterlimit="10"/>
<path d="M147.043 85.0339H143.337V88.7238H147.043V85.0339Z" fill="#41BBC7" stroke="#0F1144" stroke-width="0.758275" stroke-miterlimit="10"/>
<path d="M127.252 85.0339H123.546V88.7238H127.252V85.0339Z" fill="#41BBC7" stroke="#0F1144" stroke-width="0.758275" stroke-miterlimit="10"/>
<path d="M101.016 85.0339H97.3098V88.7238H101.016V85.0339Z" fill="#41BBC7" stroke="#0F1144" stroke-width="0.758275" stroke-miterlimit="10"/>
<path d="M75.9917 84.0777H79.6672" stroke="#0F1144" stroke-width="0.758275" stroke-miterlimit="10"/>
<path d="M174.731 77.8053H171.025V81.4952H174.731V77.8053Z" fill="#41BBC7" stroke="#0F1144" stroke-width="0.758275" stroke-miterlimit="10"/>
<path d="M167.378 77.8053H163.672V81.4952H167.378V77.8053Z" fill="#41BBC7" stroke="#0F1144" stroke-width="0.758275" stroke-miterlimit="10"/>
<path d="M79.6825 77.8053H75.9764V81.4952H79.6825V77.8053Z" fill="#41BBC7" stroke="#0F1144" stroke-width="0.758275" stroke-miterlimit="10"/>
<path d="M177.803 75.0412H159.033V124.926H177.803V75.0412Z" stroke="#0F1144" stroke-width="0.758275" stroke-miterlimit="10"/>
<path d="M110.731 74.6418H107.024V78.3317H110.731V74.6418Z" fill="#41BBC7" stroke="#0F1144" stroke-width="0.758275" stroke-miterlimit="10"/>
<path d="M101.016 74.6418H97.3098V78.3317H101.016V74.6418Z" fill="#41BBC7" stroke="#0F1144" stroke-width="0.758275" stroke-miterlimit="10"/>
<path d="M154.759 67.5932H151.053V71.2832H154.759V67.5932Z" fill="#41BBC7" stroke="#0F1144" stroke-width="0.758275" stroke-miterlimit="10"/>
<path d="M147.043 67.5932H143.337V71.2832H147.043V67.5932Z" fill="#41BBC7" stroke="#0F1144" stroke-width="0.758275" stroke-miterlimit="10"/>
<path d="M159.011 64.1968H90.8339V124.924H159.011V64.1968Z" stroke="#0F1144" stroke-width="0.758275" stroke-miterlimit="10"/>
<path d="M101.016 67.5932H97.3098V71.2832H101.016V67.5932Z" fill="#41BBC7" stroke="#0F1144" stroke-width="0.758275" stroke-miterlimit="10"/>
<path d="M162.869 59L160.33 64.1968H89.4251L86.8856 59H162.869Z" fill="white" stroke="#0F1144" stroke-width="0.758275" stroke-miterlimit="10"/>
</g>
<path d="M60.8901 122.19V124.778" stroke="#0F1144" stroke-width="0.740585" stroke-miterlimit="10"/>
<path d="M58.0753 121.746V125" stroke="#0F1144" stroke-width="0.740585" stroke-miterlimit="10"/>
<path d="M64.0012 120.119V125" stroke="#0F1144" stroke-width="0.740585" stroke-miterlimit="10"/>
<path d="M38.9961 114.276H56.8923L50.8657 77H45.0227L38.9961 114.276Z" fill="#07C279" fill-opacity="0.5"/>
<path d="M47.3368 124.852V92.3097" stroke="#0F1144" stroke-width="0.740585" stroke-miterlimit="10"/>
<path d="M39.4405 112.723H55.0893L49.8197 77H44.7101L39.4405 112.723Z" stroke="#0F1144" stroke-width="0.740585" stroke-miterlimit="10"/>
<path d="M260.185 121.37V124.713" stroke="#0F1144" stroke-width="0.740585" stroke-miterlimit="10"/>
<path d="M256.566 120.797V125" stroke="#0F1144" stroke-width="0.740585" stroke-miterlimit="10"/>
<path d="M264.185 118.695V125" stroke="#0F1144" stroke-width="0.740585" stroke-miterlimit="10"/>
<path d="M232.035 111.148H255.045L247.296 63H239.784L232.035 111.148Z" fill="#07C279" fill-opacity="0.5"/>
<path d="M242.759 124.809V82.775" stroke="#0F1144" stroke-width="0.740585" stroke-miterlimit="10"/>
<path d="M232.607 109.142H252.727L245.951 63H239.382L232.607 109.142Z" stroke="#0F1144" stroke-width="0.740585" stroke-miterlimit="10"/>
<path d="M265.509 123.206V124.858" stroke="#0F1144" stroke-width="0.614954" stroke-miterlimit="10"/>
<path d="M261.801 123.206V124.858" stroke="#0F1144" stroke-width="0.614954" stroke-miterlimit="10"/>
<path d="M260.041 122.734V124.811" stroke="#0F1144" stroke-width="0.614954" stroke-miterlimit="10"/>
<path d="M273.845 104.541C274.286 103.873 274.543 103.067 274.543 102.201C274.543 99.8811 272.697 98 270.419 98C268.141 98 266.294 99.8811 266.294 102.201C266.294 103.067 266.552 103.873 266.993 104.541C265.074 105.723 263.792 107.869 263.792 110.319C263.792 114.047 266.758 117.069 270.418 117.069C274.077 117.069 277.044 114.047 277.044 110.319C277.046 107.869 275.764 105.724 273.845 104.541Z" fill="#07C279" fill-opacity="0.5" stroke="#0F1144" stroke-width="0.614954" stroke-miterlimit="10"/>
<path d="M270.421 125V112.35" stroke="#0F1144" stroke-width="0.614954" stroke-miterlimit="10"/>
<path d="M227.917 128H174.668V101.407C174.668 101.407 193.419 94.6179 206.628 76.0145C215.52 63.4896 217.16 36.2092 217.16 36.2092H227.917V128Z" fill="#ACE5E5"/>
<path d="M160.695 0H133.608V28.2797C133.608 28.2797 136.17 17.9969 143.125 10.6507C149.908 3.48669 160.695 0 160.695 0Z" fill="#ACE5E5"/>
<path d="M187.601 125.034H136.168V2.0715H187.601V36.2093" fill="white"/>
<path d="M187.601 125.034H136.168V2.0715H187.601V36.2093" stroke="#0F1144" stroke-width="1.05515" stroke-miterlimit="10" stroke-linecap="round"/>
<path d="M224.284 36.2092H172.851V124.868H224.284V36.2092Z" stroke="#0F1144" stroke-width="1.05515" stroke-miterlimit="10" stroke-linecap="round"/>
<path d="M198.601 80.6214H125.102V124.951H198.601V80.6214Z" fill="white" stroke="#0F1144" stroke-width="1.05515" stroke-miterlimit="10" stroke-linecap="round"/>
<path d="M147.234 108.13H131.765V125.105H147.234V108.13Z" fill="#41BBC7" stroke="#0F1144" stroke-width="1.05515" stroke-miterlimit="10"/>
<path d="M131.544 106.142C131.544 101.702 135.129 98.1046 139.554 98.1046C143.979 98.1046 147.565 101.702 147.565 106.142H131.544Z" stroke="#0F1144" stroke-width="1.05515" stroke-miterlimit="10"/>
<path d="M191.003 94.5284H184.287V111.334H191.003V94.5284Z" fill="#41BBC7" stroke="#0F1144" stroke-width="1.05515" stroke-miterlimit="10"/>
<path d="M176.964 94.5284H170.248V111.334H176.964V94.5284Z" fill="#41BBC7" stroke="#0F1144" stroke-width="1.05515" stroke-miterlimit="10"/>
<path d="M162.925 94.5284H156.209V111.334H162.925V94.5284Z" fill="#41BBC7" stroke="#0F1144" stroke-width="1.05515" stroke-miterlimit="10"/>
<path d="M118 89.9016H203.06" stroke="#0F1144" stroke-width="1.05515" stroke-miterlimit="10" stroke-linecap="round"/>
<path d="M218.946 86.5193H212.2V93.2872H218.946V86.5193Z" fill="#41BBC7" stroke="#0F1144" stroke-width="1.05515" stroke-miterlimit="10"/>
<path d="M201.934 65.8046H195.188V72.5726H201.934V65.8046Z" fill="#41BBC7" stroke="#0F1144" stroke-width="1.05515" stroke-miterlimit="10"/>
<path d="M187.564 65.8046H180.819V72.5726H187.564V65.8046Z" fill="#41BBC7" stroke="#0F1144" stroke-width="1.05515" stroke-miterlimit="10"/>
<path d="M169.066 52.713H162.32V59.4809H169.066V52.713Z" fill="#41BBC7" stroke="#2D358E" stroke-width="1.05515" stroke-miterlimit="10"/>
<path d="M218.946 50.8901H212.2V57.658H218.946V50.8901Z" fill="#41BBC7" stroke="#0F1144" stroke-width="1.05515" stroke-miterlimit="10"/>
<path d="M172.835 44.9922H228" stroke="#0F1144" stroke-width="1.05515" stroke-miterlimit="10" stroke-linecap="round"/>
<path d="M150.567 29.844H143.822V36.6119H150.567V29.844Z" fill="#41BBC7" stroke="#0F1144" stroke-width="1.05515" stroke-miterlimit="10"/>
<path d="M167.91 16.5866H161.164V23.3545H167.91V16.5866Z" fill="#41BBC7" stroke="#0F1144" stroke-width="1.05515" stroke-miterlimit="10"/>
<path d="M150.645 16.5866H143.9V23.3545H150.645V16.5866Z" fill="#41BBC7" stroke="#0F1144" stroke-width="1.05515" stroke-miterlimit="10"/>
<path d="M187.535 10.0259H131.709" stroke="#0F1144" stroke-width="1.05515" stroke-miterlimit="10" stroke-linecap="round"/>
<path d="M0 125H296" stroke="#0F1144" stroke-width="1.05515" stroke-miterlimit="10"/>
<defs>
<clipPath id="clip0">
<rect width="113.023" height="68" fill="white" transform="translate(68.002 59)"/>
</clipPath>
</defs>
</svg>
