<?xml version="1.0" encoding="utf-8"?>
<!-- Generator: Adobe Illustrator 15.0.0, SVG Export Plug-In . SVG Version: 6.00 Build 0)  -->
<!DOCTYPE svg PUBLIC "-//W3C//DTD SVG 1.1//EN" "http://www.w3.org/Graphics/SVG/1.1/DTD/svg11.dtd">
<svg version="1.1" xmlns="http://www.w3.org/2000/svg" xmlns:xlink="http://www.w3.org/1999/xlink" x="0px" y="0px" width="1200px"
	 height="1200px" viewBox="0 0 1200 1200" enable-background="new 0 0 1200 1200" xml:space="preserve">
<g id="Layer_3">
</g>
<g id="Layer_2">
	<g id="Layer_4">
	</g>
	<g id="Layer_5">
	</g>
	<path fill="#DD051F" d="M877.5,408.162C877.5,252.328,753.259,126,600,126S322.5,252.328,322.5,408.162
		c0,62.844,20.228,120.873,54.393,167.769l203.213,467.629c1.913,4.325,22.614,48.843,43.983-0.331
		c0.001-0.001,0.001-0.002,0.001-0.002L832.938,562.63h-0.755C860.802,518.245,877.5,465.199,877.5,408.162z M597.975,554.392
		c-85.02,0-153.942-70.08-153.942-156.528s68.922-156.527,153.942-156.527s153.941,70.08,153.941,156.527
		S682.994,554.392,597.975,554.392z"/>
	<path fill="#F2082F" d="M875.475,408.162c0-155.145-123.15-281.026-275.475-282.136V241.39
		c83.147,2.185,149.891,71.403,149.891,156.474S683.147,552.153,600,554.337v511.809c6.696,0.391,14.336-5.136,22.063-22.918
		c0-0.001,0.001-0.002,0.001-0.002L830.912,562.63h-0.755C858.776,518.245,875.475,465.199,875.475,408.162z"/>
</g>
</svg>
