<svg width="182" height="128" viewBox="0 0 182 128" fill="none" xmlns="http://www.w3.org/2000/svg">
<path d="M0.5 125.199H181.5" stroke="#0F1144" stroke-width="1.05515" stroke-miterlimit="10"/>
<path d="M165.5 106.226H145.723V118.61H165.5V106.226Z" fill="#ACE5E5"/>
<path d="M154.857 125V117.649" stroke="#0F1144" stroke-width="0.565476" stroke-miterlimit="10"/>
<path d="M164.103 106H145.5V117.649H164.103V106Z" stroke="#0F1144" stroke-width="0.565476" stroke-miterlimit="10"/>
<path d="M151.348 113.804H161.708" stroke="#0F1144" stroke-width="0.565476" stroke-miterlimit="10"/>
<path d="M147.672 110.071H158.812" stroke="#0F1144" stroke-width="0.565476" stroke-miterlimit="10"/>
<path d="M23.9669 123.206V124.858" stroke="#0F1144" stroke-width="0.614954" stroke-miterlimit="10"/>
<path d="M20.2597 123.206V124.858" stroke="#0F1144" stroke-width="0.614954" stroke-miterlimit="10"/>
<path d="M18.5 122.734V124.811" stroke="#0F1144" stroke-width="0.614954" stroke-miterlimit="10"/>
<path d="M28.8777 125V112.35" stroke="#0F1144" stroke-width="0.614954" stroke-miterlimit="10"/>
<path d="M32.3019 104.541C32.7424 103.873 33 103.067 33 102.201C33 99.8811 31.1537 98 28.8764 98C26.5992 98 24.7528 99.8811 24.7528 102.201C24.7528 103.067 25.0104 103.873 25.4509 104.541C23.5323 105.723 22.2505 107.869 22.2505 110.319C22.2505 114.047 25.2162 117.069 28.8752 117.069C32.5342 117.069 35.5 114.047 35.5 110.319C35.5024 107.869 34.2205 105.724 32.3019 104.541Z" fill="#07C279" fill-opacity="0.5" stroke="#0F1144" stroke-width="0.614954" stroke-miterlimit="10"/>
<path d="M128.044 81H54.5971V124.848H128.044V81Z" fill="white" stroke="#0F1144" stroke-width="1.05515" stroke-miterlimit="10" stroke-linecap="round"/>
<path d="M76.7136 108.21H61.2551V125H76.7136V108.21Z" fill="#41BBC7" stroke="#0F1144" stroke-width="1.05515" stroke-miterlimit="10"/>
<path d="M61.034 106.243C61.034 101.852 64.6172 98.2931 69.0389 98.2931C73.4605 98.2931 77.0437 101.852 77.0437 106.243H61.034Z" stroke="#0F1144" stroke-width="1.05515" stroke-miterlimit="10"/>
<path d="M120.451 94.7558H113.741V111.379H120.451V94.7558Z" fill="#41BBC7" stroke="#0F1144" stroke-width="1.05515" stroke-miterlimit="10"/>
<path d="M106.422 94.7558H99.7114V111.379H106.422V94.7558Z" fill="#41BBC7" stroke="#0F1144" stroke-width="1.05515" stroke-miterlimit="10"/>
<path d="M92.3932 94.7558H85.6823V111.379H92.3932V94.7558Z" fill="#41BBC7" stroke="#0F1144" stroke-width="1.05515" stroke-miterlimit="10"/>
<path d="M47.5 90.1793H132.5" stroke="#0F1144" stroke-width="1.05515" stroke-miterlimit="10" stroke-linecap="round"/>
</svg>
