<svg width="20" height="20" viewBox="0 0 20 20" fill="none" xmlns="http://www.w3.org/2000/svg">
<path d="M4.65371 4.65274C3.265 6.04145 2.5 7.88887 2.5 9.85387C2.5 11.8189 3.265 13.6653 4.65371 15.055C6.04242 16.4447 7.88984 17.2087 9.85484 17.2087C11.8198 17.2087 13.6663 16.4437 15.056 15.055C16.4456 13.6663 17.2097 11.8189 17.2097 9.85484C17.2097 7.89081 16.4447 6.04339 15.056 4.65371C13.6673 3.26403 11.8198 2.5 9.85484 2.5C7.88984 2.5 6.04339 3.26403 4.65371 4.65274ZM16.4355 9.85387C16.4355 13.4824 13.4834 16.4345 9.85484 16.4345C6.22629 16.4345 3.27419 13.4824 3.27419 9.85387C3.27419 6.22532 6.22629 3.27323 9.85484 3.27323C13.4834 3.27323 16.4355 6.22532 16.4355 9.85387Z" fill="#4587e6"/>
<path d="M14.1129 11.0152C14.1129 11.1144 14.0752 11.2135 13.9997 11.289C13.8487 11.44 13.6034 11.44 13.4524 11.289L9.85532 7.69194L6.25823 11.289C6.10726 11.44 5.86194 11.44 5.71097 11.289C5.56 11.1381 5.56 10.8927 5.71097 10.7418L9.58194 6.87081C9.7329 6.71984 9.97823 6.71984 10.1292 6.87081L14.0002 10.7418C14.0761 10.8177 14.1129 10.9165 14.1129 11.0152Z" fill="#4587e6"/>
</svg>
